HIERARCHY
ROOT Spine
{
    OFFSET 0.0 0.0 -0.0
    CHANNELS 6 Xposition Yposition Zposition Zrotation Xrotation Yrotation
    JOINT ShoulderCenter
    {
        OFFSET 0.0 28.649211883544922 0.0
        CHANNELS 3 Zrotation Xrotation Yrotation
        JOINT LeftShoulder
        {
            OFFSET 18.34325408935547 0.0 0.0
            CHANNELS 3 Zrotation Xrotation Yrotation
            JOINT LeftElbow
            {
                OFFSET 29.939769744873047 0.0 0.0
                CHANNELS 3 Zrotation Xrotation Yrotation
                JOINT LeftHand
                {
                    OFFSET 31.052207946777344 0.0 0.0
                    CHANNELS 3 Zrotation Xrotation Yrotation
                    End Site
                    {
                        OFFSET 12.420881271362305 0.0 0.0
                    }
                }
            }
        }
        JOINT RightShoulder
        {
            OFFSET -18.34325408935547 0.0 0.0
            CHANNELS 3 Zrotation Xrotation Yrotation
            JOINT RightElbow
            {
                OFFSET -29.939769744873047 0.0 0.0
                CHANNELS 3 Zrotation Xrotation Yrotation
                JOINT RightHand
                {
                    OFFSET -31.052207946777344 0.0 0.0
                    CHANNELS 3 Zrotation Xrotation Yrotation
                    End Site
                    {
                        OFFSET -12.420881271362305 0.0 0.0
                    }
                }
            }
        }
        End Site
        {
            OFFSET 0.0 11.459683418273926 0.0
        }
    }
    JOINT LeftHip
    {
        OFFSET 15.816084366261643 -15.816084366261643 0.0
        CHANNELS 3 Zrotation Xrotation Yrotation
        JOINT LeftKnee
        {
            OFFSET 0.0 -39.30944061279297 0.0
            CHANNELS 3 Zrotation Xrotation Yrotation
            JOINT LeftFoot
            {
                OFFSET 0.0 -44.71875 0.0
                CHANNELS 3 Zrotation Xrotation Yrotation
                End Site
                {
                    OFFSET 0.0 0.0 17.88749885559082
                }
            }
        }
    }
    JOINT RightHip
    {
        OFFSET -15.816084366261643 -15.816084366261643 0.0
        CHANNELS 3 Zrotation Xrotation Yrotation
        JOINT RightKnee
        {
            OFFSET 0.0 -39.30944061279297 0.0
            CHANNELS 3 Zrotation Xrotation Yrotation
            JOINT RightFoot
            {
                OFFSET 0.0 -44.71875 0.0
                CHANNELS 3 Zrotation Xrotation Yrotation
                End Site
                {
                    OFFSET 0.0 0.0 17.88749885559082
                }
            }
        }
    }
}
MOTION
Frames: 9
Frame Time: 0.03333333333333333
7.100000381469727 8.800000190734863 50.80000305175781 1.0121887374952474 8.440339067401919 -0.4318541126708892 -3.0786013508450985e-08 -3.852729679474168e-08 4.565756304912467 95.82766314775013 -23.137681611748885 159.1421460791622 4.996889162625055e-06 1.0457530129398e-06 106.82034867743673 0.0 0.0 0.0 -127.29002509997389 -22.74033615454993 153.16292293722063 -1.9006904839942612e-06 1.5164430427008867e-08 -132.59239847036784 6.3611093629270335e-15 -4.4139062980501586e-32 -7.951386703658792e-16 -0.7037910801977129 1.695675800879465 -36.86185233409903 9.352671607901287 -13.41449887084292 35.32719355907718 9.93923337957349e-17 1.185375226527142e-34 1.3666445896913547e-16 -4.3270331005861555 -5.5287150917555055 20.259622964564066 -5.556907120072158 -5.164390959936916 -10.663045037564231 7.951386703658792e-16 1.7241821476758432e-34 2.4848083448933725e-17
7.0 8.800000190734863 50.80000305175781 1.012187682591603 8.83605299527371 -0.7730238667975907 6.559555287173329e-08 -1.3327615241274582e-07 5.229268816964876 97.40743463921235 -27.65893262620838 159.16946471526737 1.7301194085122767e-06 4.5605463129975796e-06 109.17896619670387 3.1805546814635176e-15 1.7655625192200634e-31 6.361109362927035e-15 -126.25270002640471 -21.21908822740691 155.23991401463255 8.635069558827974e-07 -4.1444139775090184e-07 -132.5473182516259 -1.7655625192200634e-31 6.3611093629270335e-15 3.1805546814635168e-15 -0.706661019336165 1.1452939626541874 -35.96878562470026 9.12675478967746 -13.385098026505267 34.77519091605484 4.969616689786745e-17 -4.041051908615257e-35 -9.318031293350146e-17 -4.291417820475229 -6.087747232977231 20.0514299967293 -5.581490725529311 -5.039648382606891 -10.578082274396628 1.034509288605506e-33 3.975693351829396e-16 -2.981770013872047e-16
7.0 8.800000190734863 50.70000457763672 1.4169208708775167 9.42665075596623 -0.6488541931765459 1.8627563720653273e-07 -3.684274104125384e-07 5.502756898870721 98.50503899138842 -31.422551745266468 159.83418929033758 8.206955190167208e-07 -1.4206903578191752e-06 112.27947479100375 3.1805546814635168e-15 1.7655625192200634e-31 6.3611093629270335e-15 -126.53433264570825 -19.27333870460211 156.41421921329095 -5.030851533684586e-07 5.071341605745686e-06 -131.8848944084953 0.0 0.0 0.0 -1.0947521894540013 0.4021507096153529 -35.93410295963019 9.161698248308943 -13.325344872374027 34.852467058967605 -4.9696166897867443e-17 7.765026077791788e-19 -5.746119297565922e-17 -4.709559518110214 -6.5278086613632915 20.51233305671891 -5.738243088508086 -5.220745056858543 -10.959769910594126 7.951386703658791e-16 -1.7241821476758432e-33 -2.484808344893372e-16
6.899999618530273 8.800000190734863 50.599998474121094 1.416920892825409 10.016527688277277 -1.0191469122026808 -2.6096466135555226e-08 8.743185717864622e-08 6.611922819227441 100.40705983868556 -33.8350091405633 161.87319757650886 -4.193360313017737e-06 -5.224697221551803e-06 115.64330717189344 -3.1805546814635168e-15 6.3611093629270335e-15 6.3611093629270335e-15 -125.17093045932559 -17.506731002954435 158.73829788093315 -2.7637181145309484e-06 4.543657943642064e-06 -131.7032757989419 0.0 0.0 -1.5902773407317584e-15 -1.086816347798469 -0.1946083141618039 -35.68259228517065 9.178796129120984 -13.2966564801632 34.31271838223594 2.4848083448933725e-17 7.765026077791789e-19 -9.007430250238476e-17 -4.529998399545551 -7.2771278082778945 20.569918561508427 -5.650962481590501 -5.123588102195426 -10.68351416144551 -7.951386703658792e-16 -3.975693351829396e-16 -2.981770013872047e-16
6.899999618530273 8.90000057220459 50.5 1.2188742298167163 10.641841924617882 -0.7499256153746433 5.799627075784656e-08 6.092210904186164e-07 7.462968019781545 102.94782106088103 -35.71192225046149 165.71491808667253 1.7292748709745506e-06 3.089418888601572e-06 119.10518338441072 3.1805546814635183e-15 -6.361109362927035e-15 6.361109362927035e-15 -123.17166011912984 -15.558537442111446 161.56810006300248 6.117416737134443e-07 2.8590886053894614e-07 -131.2940179225826 -6.361109362927033e-15 0.0 0.0 -0.8819980774539624 -1.1397670365167392 -34.99079320948111 8.837279574726791 -13.282591905507646 34.28244358139887 0.0 0.0 -8.075627120903461e-17 -4.355261215579704 -8.02500454018128 20.08684933406453 -5.726119626728351 -4.962206655839704 -10.475334746819142 7.951386703658791e-16 3.9756933518293955e-16 -5.715059193254755e-16
6.800000190734863 8.90000057220459 50.400001525878906 0.40634685334077814 11.231489368492062 -0.4583410456814345 -7.752013916025915e-08 5.49429549899639e-07 8.503433517175099 106.2472278694777 -35.474159803354695 171.23326784278447 -1.4098403462493706e-06 2.0106150475750735e-06 122.7834982084998 -3.1805546814635168e-15 0.0 0.0 -120.04297770373238 -13.398434668566937 164.76557641263392 1.750768058924363e-08 1.8301910445955575e-06 -130.69208634477087 0.0 0.0 0.0 -0.08096341594979814 -1.694467889953715 -35.24835526655476 9.23557204799319 -13.324299806957912 35.11125848758975 1.2424041724466861e-17 -6.7350865143587625e-37 -6.2120208622334304e-18 -3.5844390779258837 -8.449637281078962 20.795812695337553 -5.729311240979894 -5.058217921430732 -10.709286150319988 0.0 0.0 -2.3108717607508363e-15
6.700000286102295 8.90000057220459 50.400001525878906 0.4063468712344062 11.426816607639495 0.3487826444853623 1.1822063750538241e-07 1.1401785377891385e-07 8.907811653456637 108.28620413129148 -34.17743830867113 177.1042934483758 -8.426913392645028e-07 3.637842795311311e-06 126.96316862421017 6.3611093629270335e-15 0.0 0.0 -117.49958995124568 -11.823454804505314 168.76350655265531 4.465284431982491e-07 2.1095209227404395e-06 -130.1719080006815 1.7655625192200634e-31 -6.361109362927033e-15 3.1805546814635164e-15 0.043999337777379 -2.2163923564592705 -34.360527972891404 8.586404583079474 -13.496827900208304 35.60271294542499 0.0 0.0 2.7954093880050443e-17 -3.704161738308637 -8.454099392520106 20.187341428373873 -5.745531269295761 -5.335883964100091 -11.263834270003064 0.0 0.0 3.4787316828507215e-16
6.599999904632568 8.800000190734863 50.30000305175781 1.235342730068434e-08 12.01147771967584 1.1803963428063033 1.2373641209227995e-07 -1.3738361292824192e-07 9.115578880779827 110.20403695534775 -32.4812705492839 -176.62335102644835 -1.721822715545233e-06 8.34612528842471e-07 130.60880564909138 -6.3611093629270335e-15 1.7655625192200634e-31 -3.1805546814635168e-15 -113.58948718063017 -10.006803257672152 172.80843800321023 -8.078627283188838e-07 2.094249912794254e-06 -129.3700555030726 0.0 0.0 -3.1805546814635168e-15 0.3984175786902327 -2.9601402974531976 -34.01581846908038 8.37484148549635 -13.727957034154226 35.628062452148264 -4.969616689786745e-17 3.8825130388958945e-19 1.5530052155583578e-17 -3.429891063249166 -8.857181091756496 20.710690973925175 -5.870812037165486 -5.211910928365771 -10.985540607719 -4.957023674568049e-34 -9.939233379573489e-17 -5.715059193254755e-16
6.5 8.90000057220459 50.30000305175781 -0.8155425030731286 12.246637553564042 2.147235656376557 3.825615532761855e-08 -1.4493304244605152e-06 9.03403077606047 112.41440072366248 -31.046610014565598 -171.37712999506286 -6.300102795254963e-07 4.071894952474863e-06 134.85098986811147 -6.3611093629270335e-15 0.0 0.0 -110.3604276748345 -8.683190117662393 175.71104619608744 -2.0403828923516205e-06 -6.580097843417817e-07 -128.40321670397935 -6.3611093629270335e-15 -1.7655625192200634e-31 3.1805546814635168e-15 1.140837340319385 -3.3800408344744124 -33.69373325375389 8.150732741004417 -13.95804269041507 36.426566825914634 1.0527782107757041e-32 1.5918303459473166e-15 -7.578665451924786e-16 -2.613393596695923 -8.800181402344624 20.75626987050285 -6.238620618029523 -5.442577952712792 -11.548035414226808 3.4483642953516864e-34 -9.93923337957349e-17 3.975693351829396e-16
